<svg xmlns="http://www.w3.org/2000/svg" width="29" height="36" viewBox="0 0 314.832 412.274"><defs><filter id="a" x="0" y="0" width="314.832" height="412.274" filterUnits="userSpaceOnUse"><feOffset dx="5" dy="5"/><feGaussianBlur stdDeviation="5" result="blur"/><feFlood flood-opacity=".102"/><feComposite operator="in" in2="blur"/><feComposite in="SourceGraphic"/></filter><filter id="b"><feOffset dx="10" dy="5"/><feGaussianBlur stdDeviation="49.5" result="blur-2"/><feFlood flood-opacity=".129" result="color"/><feComposite operator="out" in="SourceGraphic" in2="blur-2"/><feComposite operator="in" in="color"/><feComposite operator="in" in2="SourceGraphic"/></filter></defs><g filter="url(#a)"><path d="M152.828 392.274a36.515 36.515 0 0 1-29.6-15.192c-13.78-19.2-40.489-57.587-64.553-98.876C10 194.688 10 162.871 10 152.416 10 73.887 73.888 10 152.416 10s142.416 63.887 142.416 142.416c0 10.441 0 42.214-48.271 125.679-23.876 41.285-50.382 79.67-64.057 98.877a36.5 36.5 0 0 1-29.676 15.3" fill="#fff"/></g><g data-type="innerShadowGroup"><path d="M152.828 377.274a21.478 21.478 0 0 1-17.411-8.938c-13.623-18.986-40.025-56.923-63.78-97.683C25 190.636 25 161.869 25 152.416a127.416 127.416 0 0 1 254.832 0c0 4.727 0 13.526-5.375 31.059-7.11 23.192-20.864 52.5-40.881 87.11-23.56 40.74-49.767 78.691-63.292 97.687a21.465 21.465 0 0 1-17.456 9" fill="#fff"/><g filter="url(#b)"><path d="M152.828 377.274a21.478 21.478 0 0 1-17.411-8.938c-13.623-18.986-40.025-56.923-63.78-97.683C25 190.636 25 161.869 25 152.416a127.416 127.416 0 0 1 254.832 0c0 4.727 0 13.526-5.375 31.059-7.11 23.192-20.864 52.5-40.881 87.11-23.56 40.74-49.767 78.691-63.292 97.687a21.465 21.465 0 0 1-17.456 9" fill="#fff"/></g></g><path fill="none" d="M10 10h284.832v382.274H10z"/><path d="M266.486 152.416c0 53.8-82.875 174.127-107.073 208.115a8.082 8.082 0 0 1-13.153.024C121.9 326.6 38.346 206.23 38.346 152.416a114.07 114.07 0 1 1 228.14 0" fill="#f49f3f"/><path d="m130.445 199.623-29.195-24.086a17.047 17.047 0 0 1 21.695-26.3l7.04 5.808a17.044 17.044 0 0 0 21.963-.226L188.9 123.03a17.045 17.045 0 1 1 22.233 25.842L152.408 199.4a17.044 17.044 0 0 1-21.963.227" fill="#fff"/></svg>