<svg xmlns="http://www.w3.org/2000/svg" width="70" height="27" viewBox="0 0 70 27">
  <g id="長方形_73" data-name="長方形 73" fill="none" stroke="#fff" stroke-width="1">
    <rect width="70" height="27" rx="2" stroke="none"/>
    <rect x="0.5" y="0.5" width="69" height="26" rx="1.5" fill="none"/>
  </g>
  <path id="Icon_material-edit" data-name="Icon material-edit" d="M4.5,17.5V20.92H7.921l10.09-10.09L14.59,7.409ZM20.657,8.184a.909.909,0,0,0,0-1.286L18.522,4.763a.909.909,0,0,0-1.286,0l-1.67,1.67,3.421,3.421,1.67-1.67Z" transform="translate(1.961 1.612)" fill="none" stroke="#fff" stroke-width="1"/>
  <path id="パス_130" data-name="パス 130" d="M.833-5.678a6.765,6.765,0,0,1,1.156-.153c.119,0,.442-.034.9-.085.136-.017.136-.017.374-.034v5.3a10.94,10.94,0,0,1-.1,1.955H4.335a10.711,10.711,0,0,1-.1-1.955V-6.035c.578-.068.578-.068,1.36-.187.085.323.119.493.238,1l.816-.306a19.29,19.29,0,0,0-1.19-3.281l-.748.272A14.016,14.016,0,0,1,5.338-7c-.663.085-1.547.17-2.38.2.8-1.071,2.006-2.907,2.669-4.046.289-.51.374-.646.51-.85l-1-.527A15.361,15.361,0,0,1,3.485-9.129c-.306-.408-.51-.68-.935-1.19a27.083,27.083,0,0,0,1.53-2.652,3.979,3.979,0,0,1,.408-.7l-1.054-.493a12.108,12.108,0,0,1-1.5,3.145c-.187-.238-.289-.323-.578-.663L.8-10.914a24.769,24.769,0,0,1,2.159,2.6c-.544.8-.544.8-1.071,1.564-.357.017-.408.017-.527.017A4.921,4.921,0,0,1,.7-6.766Zm9.588,3.009v1.9A14.677,14.677,0,0,1,10.353.918h.969a13.406,13.406,0,0,1-.068-1.683v-1.9H12.6v1.9A14.676,14.676,0,0,1,12.529.918H13.5A13.938,13.938,0,0,1,13.43-.765v-1.9h1.445v2.4c0,.306-.085.374-.459.374A3.1,3.1,0,0,1,13.77.034a2.166,2.166,0,0,1,.187.952c.136.017.408.017.578.017.935,0,1.241-.289,1.241-1.19V-4.879a14.691,14.691,0,0,1,.068-1.751,12.707,12.707,0,0,1-1.666.085H10.03c-.986,0-1.53-.017-1.87-.051A13.979,13.979,0,0,1,8.228-4.93v4.5A15.655,15.655,0,0,1,8.16,1.258H9.18A14.3,14.3,0,0,1,9.112-.425V-2.669Zm0-.85H9.112V-5.678h1.309Zm.833,0V-5.678H12.6v2.159Zm2.176,0V-5.678h1.445v2.159ZM1.53-4.845A15.267,15.267,0,0,1,.68-.2L1.564.2a19.516,19.516,0,0,0,.884-4.879Zm3.315.119A18.65,18.65,0,0,1,5.389-1.87L6.2-2.142a24.921,24.921,0,0,0-.561-2.771Zm1.547-7.633a8.459,8.459,0,0,1,1.513-.085H14.45a9.681,9.681,0,0,1,1.615.085v-1.122a10.848,10.848,0,0,1-1.666.1H8.058a10.7,10.7,0,0,1-1.666-.1Zm7.6,4.488c.629,0,1.19.017,1.479.051a12.537,12.537,0,0,1-.051-1.309v-.884a11.591,11.591,0,0,1,.051-1.275c-.374.034-.833.051-1.53.051H8.585c-.731,0-1.139-.017-1.547-.051A9.928,9.928,0,0,1,7.089-9.86C7.089-4.59,6.613-1.921,5.3.153A2.446,2.446,0,0,1,6.12.884,13.7,13.7,0,0,0,7.769-4.5c.1-.833.238-2.567.255-3.366ZM8.058-10.353h6.375v1.615H8.041c.017-.255.017-.544.017-.935ZM26.231-7.412h3.621a8.8,8.8,0,0,1,1.53.085v-1.02a8.015,8.015,0,0,1-1.53.1H26.231V-9.52h3.621a9.038,9.038,0,0,1,1.53.085v-1.02a8.015,8.015,0,0,1-1.53.1H26.231v-1.275H30.7a8.739,8.739,0,0,1,1.479.085V-12.6a9.618,9.618,0,0,1-1.564.085h-4.3a11.162,11.162,0,0,0,1.037-1.632l-1.1-.255a6.3,6.3,0,0,1-1.02,1.887H21.556a18.353,18.353,0,0,0,1.122-1.632L21.5-14.433a5.474,5.474,0,0,1-.612,1.224,11.512,11.512,0,0,1-3.3,3.366,3.182,3.182,0,0,1,.68.833,11.1,11.1,0,0,0,1.887-1.751c-.051.527-.068,1.054-.068,1.666v2.856A9.886,9.886,0,0,1,20.043-5.1a10.644,10.644,0,0,1,1.173-.034h3.74v1.241H19.873a11.592,11.592,0,0,1-1.87-.1v1.122a14.907,14.907,0,0,1,1.87-.1h4.2A9.436,9.436,0,0,1,21.9-1.462,13.275,13.275,0,0,1,17.765-.085a3.567,3.567,0,0,1,.68,1.02A17.248,17.248,0,0,0,21.692-.238a10.553,10.553,0,0,0,3.315-2.4,4.009,4.009,0,0,0-.017.493,1.576,1.576,0,0,0-.017.34c-.017.187-.017.34-.017.459V0a5.113,5.113,0,0,1-.1,1.258h1.258a4.492,4.492,0,0,1-.1-1.275V-1.343a12.153,12.153,0,0,0-.051-1.292,14.3,14.3,0,0,0,6.63,3.655,4.293,4.293,0,0,1,.646-1.054,14.119,14.119,0,0,1-6.392-2.941h4.284a15.49,15.49,0,0,1,1.9.1V-3.995a10.29,10.29,0,0,1-1.9.1H26.01V-5.134h4.675a9.515,9.515,0,0,1,1.547.085v-1.02a9.492,9.492,0,0,1-1.564.085H26.231Zm-1,0v1.428h-4.1V-7.412Zm0-.833h-4.1V-9.52h4.1Zm0-2.108h-4.1v-1.275h4.1Z" transform="translate(28 20)" fill="#fff"/>
</svg>
