<?xml version="1.0" encoding="utf-8"?>
<!-- Generator: Adobe Illustrator 26.0.1, SVG Export Plug-In . SVG Version: 6.00 Build 0)  -->
<svg version="1.1" id="レイヤー_1" xmlns="http://www.w3.org/2000/svg" xmlns:xlink="http://www.w3.org/1999/xlink" x="0px"
	 y="0px" viewBox="0 0 70 27" style="enable-background:new 0 0 70 27;" xml:space="preserve">
<style type="text/css">
	.st0{fill:none;}
	.st1{fill:none;stroke:#FFFFFF;}
	.st2{fill:#FFFFFF;}
	.st3{font-family:'HiraKakuProN-W3-83pv-RKSJ-H';}
	.st4{font-size:17px;}
</style>
<g id="グループ_56" transform="translate(-294 -51)">
	<g id="長方形_73" transform="translate(294 51)">
		<path class="st0" d="M2,0h66c1.1,0,2,0.9,2,2v23c0,1.1-0.9,2-2,2H2c-1.1,0-2-0.9-2-2V2C0,0.9,0.9,0,2,0z"/>
		<path class="st1" d="M2,0.5h66c0.83,0,1.5,0.67,1.5,1.5v23c0,0.83-0.67,1.5-1.5,1.5H2c-0.83,0-1.5-0.67-1.5-1.5V2
			C0.5,1.17,1.17,0.5,2,0.5z"/>
	</g>
	<path id="Icon_material-edit" class="st1" d="M300.46,70.11v3.42h3.42l10.09-10.09l-3.42-3.42L300.46,70.11z M316.62,60.8
		c0.36-0.35,0.36-0.93,0-1.29c0,0,0,0,0,0l-2.14-2.13c-0.35-0.36-0.93-0.36-1.29,0c0,0,0,0,0,0l-1.67,1.67l3.42,3.42L316.62,60.8z"
		/>
	<text transform="matrix(1 0 0 1 322 71)" class="st2 st3 st4">編集</text>
</g>
</svg>
