<svg xmlns="http://www.w3.org/2000/svg" viewBox="0 0 70 27" style="enable-background:new 0 0 70 27" xml:space="preserve"><style>.st1{fill:none;stroke:#fff}</style><path class="st1" d="M2 0h66c1.1 0 2 .9 2 2v23c0 1.1-.9 2-2 2H2c-1.1 0-2-.9-2-2V2C0 .9.9 0 2 0z"/><path class="st1" d="M2 .5h66c.83 0 1.5.67 1.5 1.5v23c0 .83-.67 1.5-1.5 1.5H2c-.83 0-1.5-.67-1.5-1.5V2C.5 1.17 1.17.5 2 .5z"/><path class="st1" d="M6.46 19.11v3.42h3.42l10.09-10.09-3.42-3.42L6.46 19.11zM22.62 9.8c.36-.35.36-.93 0-1.29l-2.14-2.13a.905.905 0 0 0-1.29 0l-1.67 1.67 3.42 3.42 1.68-1.67z"/><text transform="translate(28 20)" style="fill:#fff;font-family:'HiraKakuProN-W3-83pv-RKSJ-H';font-size:17px">編集</text></svg>