<svg xmlns="http://www.w3.org/2000/svg" xmlns:xlink="http://www.w3.org/1999/xlink" width="251.672" height="154.363" viewBox="0 0 251.672 154.363">
  <defs>
    <clipPath id="clip-path">
      <rect id="長方形_131" data-name="長方形 131" width="156.708" height="141.363" fill="none"/>
    </clipPath>
    <clipPath id="clip-path-2">
      <rect id="長方形_132" data-name="長方形 132" width="20.756" height="23.469" fill="none"/>
    </clipPath>
    <clipPath id="clip-path-3">
      <rect id="長方形_155" data-name="長方形 155" width="45" height="90.372" fill="none"/>
    </clipPath>
    <clipPath id="clip-path-4">
      <rect id="長方形_154" data-name="長方形 154" width="45" height="54.782" fill="none"/>
    </clipPath>
  </defs>
  <g id="グループ_149" data-name="グループ 149" transform="translate(-6167.155 -13829.738)">
    <g id="グループ_147" data-name="グループ 147" transform="translate(6244 13829.738)">
      <g id="グループ_128" data-name="グループ 128" transform="translate(18.118 0)">
        <g id="グループ_114" data-name="グループ 114" transform="translate(0)" clip-path="url(#clip-path)">
          <path id="パス_26" data-name="パス 26" d="M208.522,141.363H57.558a3.04,3.04,0,0,1-2.872-3.183v-135A3.04,3.04,0,0,1,57.558,0H208.522a3.04,3.04,0,0,1,2.872,3.183v135a3.04,3.04,0,0,1-2.872,3.183" transform="translate(-54.686)" fill="#f37504"/>
        </g>
      </g>
      <g id="グループ_129" data-name="グループ 129" transform="translate(0 106.367)" style="isolation: isolate">
        <g id="グループ_118" data-name="グループ 118" transform="translate(0 0)">
          <g id="グループ_117" data-name="グループ 117" clip-path="url(#clip-path-2)">
            <path id="パス_27" data-name="パス 27" d="M18.32,302.622.812,292.514a1.624,1.624,0,0,1,0-2.813L18.32,279.593A1.624,1.624,0,0,1,20.756,281v20.216a1.624,1.624,0,0,1-2.436,1.406" transform="translate(0 -279.373)" fill="#f37504"/>
          </g>
        </g>
      </g>
    </g>
    <rect id="長方形_148" data-name="長方形 148" width="135" height="2" rx="1" transform="translate(6274 13874.808)" fill="#fff"/>
    <rect id="長方形_149" data-name="長方形 149" width="135" height="2" rx="1" transform="translate(6274 13911.808)" fill="#fff"/>
    <rect id="長方形_150" data-name="長方形 150" width="135" height="2" rx="1" transform="translate(6274 13949.808)" fill="#fff"/>
    <text id="水族館" transform="translate(6297 13861.808)" fill="#fff" font-size="13" font-family="HiraKakuProN-W3, Hiragino Kaku Gothic ProN"><tspan x="0" y="0">水族館</tspan></text>
    <text id="スタバで課題" transform="translate(6297 13898.808)" fill="#fff" font-size="13" font-family="HiraKakuProN-W3, Hiragino Kaku Gothic ProN"><tspan x="0" y="0">スタバで課題</tspan></text>
    <text id="みんなでBBQ_誰でも_" data-name="みんなでBBQ（誰でも！）" transform="translate(6297 13937.808)" fill="#fff" font-size="9" font-family="HiraKakuProN-W3, Hiragino Kaku Gothic ProN"><tspan x="0" y="0">みんなでBBQ（誰でも！）</tspan></text>
  </g>
  <g id="グループ_163" data-name="グループ 163" transform="translate(0 63.991)">
    <g id="グループ_161" data-name="グループ 161" clip-path="url(#clip-path-3)">
      <g id="グループ_160" data-name="グループ 160" transform="translate(0 35.589)" style="isolation: isolate">
        <g id="グループ_159" data-name="グループ 159">
          <g id="グループ_158" data-name="グループ 158" clip-path="url(#clip-path-4)">
            <path id="パス_54" data-name="パス 54" d="M41.281,150.478H3.719A3.719,3.719,0,0,1,0,146.759V118.01A22.314,22.314,0,0,1,22.314,95.7h.372A22.314,22.314,0,0,1,45,118.01v28.749a3.719,3.719,0,0,1-3.719,3.719" transform="translate(0 -95.696)" fill="#025aa6"/>
          </g>
        </g>
      </g>
      <path id="パス_55" data-name="パス 55" d="M46.421,19.711A19.711,19.711,0,1,1,26.711,0,19.711,19.711,0,0,1,46.421,19.711" transform="translate(-4.397)" fill="#ffc274"/>
      <path id="パス_56" data-name="パス 56" d="M14.432,19.715c0-8.889,5.028-16.505,12.173-19.708a19.708,19.708,0,0,0,0,39.416C19.46,36.22,14.432,28.6,14.432,19.715" transform="translate(-4.397 -0.004)" fill="#eaa65e"/>
      <path id="パス_57" data-name="パス 57" d="M46.421,19.711a19.711,19.711,0,1,0-38.7,5.268A15.673,15.673,0,0,0,19.279,9.855c0-.385-.013-.766-.042-1.141a12.008,12.008,0,0,0,3.92.656A11.889,11.889,0,0,0,29,7.842,17.448,17.448,0,0,0,45.9,24.222a19.751,19.751,0,0,0,.525-4.511" transform="translate(-4.397)"/>
    </g>
  </g>
</svg>
