<svg xmlns="http://www.w3.org/2000/svg" xmlns:xlink="http://www.w3.org/1999/xlink" width="281.132" height="162.597" viewBox="0 0 281.132 162.597">
  <defs>
    <clipPath id="clip-path">
      <rect id="長方形_146" data-name="長方形 146" width="102.288" height="144.411" fill="none"/>
    </clipPath>
    <clipPath id="clip-path-2">
      <rect id="長方形_131" data-name="長方形 131" width="133.917" height="120.804" fill="none"/>
    </clipPath>
    <clipPath id="clip-path-3">
      <rect id="長方形_155" data-name="長方形 155" width="45" height="90.372" fill="none"/>
    </clipPath>
    <clipPath id="clip-path-4">
      <rect id="長方形_154" data-name="長方形 154" width="45" height="54.782" fill="none"/>
    </clipPath>
    <clipPath id="clip-path-5">
      <rect id="長方形_157" data-name="長方形 157" width="94.58" height="144.843" fill="none"/>
    </clipPath>
    <clipPath id="clip-path-6">
      <rect id="長方形_158" data-name="長方形 158" width="26.255" height="36.702" fill="none"/>
    </clipPath>
    <clipPath id="clip-path-7">
      <rect id="長方形_159" data-name="長方形 159" width="26.254" height="36.702" fill="none"/>
    </clipPath>
  </defs>
  <text id="いきたい_" data-name="いきたい！" transform="translate(204.987 82.754)" fill="#fff" font-size="10" font-family="HiraginoSans-W3, Hiragino Sans"><tspan x="0" y="0">いきたい！</tspan></text>
  <g id="グループ_201" data-name="グループ 201" transform="translate(0 23.352)">
    <g id="グループ_114" data-name="グループ 114" transform="translate(0)" clip-path="url(#clip-path-2)">
      <path id="パス_26" data-name="パス 26" d="M186.149,120.8H57.141a2.6,2.6,0,0,1-2.455-2.72V2.72A2.6,2.6,0,0,1,57.141,0H186.149A2.6,2.6,0,0,1,188.6,2.72V118.083a2.6,2.6,0,0,1-2.455,2.72" transform="translate(-54.686)" fill="#f37504"/>
    </g>
  </g>
  <g id="グループ_204" data-name="グループ 204" transform="translate(-15.483 114.249)" style="isolation: isolate">
    <g id="グループ_118" data-name="グループ 118" transform="translate(0 0)">
      <g id="グループ_151" data-name="グループ 151">
        <path id="パス_27" data-name="パス 27" d="M15.655,299.24.694,290.6a1.388,1.388,0,0,1,0-2.4l14.961-8.638a1.388,1.388,0,0,1,2.082,1.2v17.276a1.388,1.388,0,0,1-2.082,1.2" transform="translate(283.151 -260.035) rotate(30)" fill="#f37504"/>
      </g>
    </g>
  </g>
  <rect id="長方形_176" data-name="長方形 176" width="115.366" height="1.709" rx="0.855" transform="translate(10.153 61.754)" fill="#fff"/>
  <rect id="長方形_177" data-name="長方形 177" width="115.366" height="1.709" rx="0.855" transform="translate(10.153 93.754)" fill="#fff"/>
  <rect id="長方形_178" data-name="長方形 178" width="115.366" height="1.709" rx="0.855" transform="translate(10.153 125.754)" fill="#fff"/>
  <g id="グループ_205" data-name="グループ 205" transform="translate(151.671)">
    <g id="グループ_161" data-name="グループ 161" clip-path="url(#clip-path-3)">
      <g id="グループ_160" data-name="グループ 160" transform="translate(0 35.589)" style="isolation: isolate">
        <g id="グループ_159" data-name="グループ 159">
          <g id="グループ_158" data-name="グループ 158" clip-path="url(#clip-path-4)">
            <path id="パス_54" data-name="パス 54" d="M41.281,150.478H3.719A3.719,3.719,0,0,1,0,146.759V118.01A22.314,22.314,0,0,1,22.314,95.7h.372A22.314,22.314,0,0,1,45,118.01v28.749a3.719,3.719,0,0,1-3.719,3.719" transform="translate(0 -95.696)" fill="#025aa6"/>
          </g>
        </g>
      </g>
      <path id="パス_55" data-name="パス 55" d="M46.421,19.711A19.711,19.711,0,1,1,26.711,0,19.711,19.711,0,0,1,46.421,19.711" transform="translate(-4.397)" fill="#ffc274"/>
      <path id="パス_56" data-name="パス 56" d="M14.432,19.715c0-8.889,5.028-16.505,12.173-19.708a19.708,19.708,0,0,0,0,39.416C19.46,36.22,14.432,28.6,14.432,19.715" transform="translate(-4.397 -0.004)" fill="#eaa65e"/>
      <path id="パス_57" data-name="パス 57" d="M46.421,19.711a19.711,19.711,0,1,0-38.7,5.268A15.673,15.673,0,0,0,19.279,9.855c0-.385-.013-.766-.042-1.141a12.008,12.008,0,0,0,3.92.656A11.889,11.889,0,0,0,29,7.842,17.448,17.448,0,0,0,45.9,24.222a19.751,19.751,0,0,0,.525-4.511" transform="translate(-4.397)"/>
    </g>
  </g>
  <g id="グループ_208" data-name="グループ 208" transform="translate(180.517 17.754)">
    <g id="グループ_165" data-name="グループ 165">
      <g id="グループ_164" data-name="グループ 164" clip-path="url(#clip-path-5)">
        <path id="パス_58" data-name="パス 58" d="M178.283,63.541,168.8,70.612a89.116,89.116,0,0,0-16.021-34.243,90.967,90.967,0,0,0-21.951-21.027l-5.581,7.035L121.97,1.434,143,0l-5.4,6.8a108.721,108.721,0,0,1,23.584,23.3,108.364,108.364,0,0,1,17.091,33.445" transform="translate(-84.877)" fill="#fff"/>
        <rect id="長方形_156" data-name="長方形 156" width="27.565" height="27.722" transform="translate(56.324 20.139)" fill="#fff"/>
        <path id="パス_59" data-name="パス 59" d="M207.037,59.759H182.471a3.361,3.361,0,0,0-3.35,3.369V87.835a3.361,3.361,0,0,0,3.35,3.369h24.566a3.36,3.36,0,0,0,3.35-3.369V63.128a3.36,3.36,0,0,0-3.35-3.369m-3.412,11.147c.014.2.014.4.014.6a12.973,12.973,0,0,1-12.846,13.1h-.177a12.909,12.909,0,0,1-7.028-2.066,9.557,9.557,0,0,0,1.1.056,9.144,9.144,0,0,0,5.681-1.965,4.587,4.587,0,0,1-4.278-3.194,4.9,4.9,0,0,0,2.066-.084,4.6,4.6,0,0,1-3.664-4.52v-.056a4.552,4.552,0,0,0,2.071.584,4.633,4.633,0,0,1-1.421-6.159,12.973,12.973,0,0,0,9.435,4.814,4.587,4.587,0,0,1,7.81-4.2,8.947,8.947,0,0,0,2.9-1.109,4.587,4.587,0,0,1-2.01,2.533,9.059,9.059,0,0,0,2.638-.712,9.66,9.66,0,0,1-2.3,2.387" transform="translate(-124.647 -41.482)" fill="#00acee"/>
      </g>
    </g>
    <g id="グループ_176" data-name="グループ 176">
      <g id="グループ_178" data-name="グループ 178">
        <g id="グループ_168" data-name="グループ 168" transform="translate(0.102 108.141)" style="isolation: isolate">
          <g id="グループ_167" data-name="グループ 167">
            <g id="グループ_166" data-name="グループ 166" clip-path="url(#clip-path-6)">
              <path id="パス_62" data-name="パス 62" d="M24.4,390.272H2.522a2.194,2.194,0,0,1-2.188-2.2v-21.3a13.128,13.128,0,1,1,26.255,0v21.3a2.194,2.194,0,0,1-2.188,2.2" transform="translate(-0.334 -353.57)" fill="#f37504"/>
            </g>
          </g>
        </g>
        <path id="パス_63" data-name="パス 63" d="M0,290.875a13.229,13.229,0,1,0,13.229-13.3A13.267,13.267,0,0,0,0,290.875" transform="translate(0 -192.674)" fill="#ffc274"/>
        <path id="パス_64" data-name="パス 64" d="M51.9,290.879a14.456,14.456,0,0,0-8.17-13.3,13.3,13.3,0,0,1,0,26.606,14.456,14.456,0,0,0,8.17-13.3" transform="translate(-30.432 -192.678)" fill="#eaa65e"/>
        <g id="グループ_171" data-name="グループ 171" transform="translate(34.163 98.047)" style="isolation: isolate">
          <g id="グループ_170" data-name="グループ 170">
            <g id="グループ_169" data-name="グループ 169" clip-path="url(#clip-path-7)">
              <path id="パス_65" data-name="パス 65" d="M136.4,357.272H114.522a2.194,2.194,0,0,1-2.188-2.2v-21.3a13.128,13.128,0,1,1,26.255,0v21.3a2.194,2.194,0,0,1-2.188,2.2" transform="translate(-112.334 -320.57)" fill="#f37504"/>
            </g>
          </g>
        </g>
        <path id="パス_66" data-name="パス 66" d="M112,257.875a13.229,13.229,0,1,0,13.229-13.3A13.267,13.267,0,0,0,112,257.875" transform="translate(-77.939 -169.767)" fill="#ffc274"/>
        <path id="パス_67" data-name="パス 67" d="M163.9,257.879a14.456,14.456,0,0,0-8.17-13.3,13.3,13.3,0,0,1,0,26.606,14.456,14.456,0,0,0,8.17-13.3" transform="translate(-108.371 -169.772)" fill="#eaa65e"/>
        <g id="グループ_174" data-name="グループ 174" transform="translate(68.224 107.223)" style="isolation: isolate">
          <g id="グループ_173" data-name="グループ 173">
            <g id="グループ_172" data-name="グループ 172" clip-path="url(#clip-path-7)">
              <path id="パス_68" data-name="パス 68" d="M248.4,387.272H226.522a2.194,2.194,0,0,1-2.188-2.2v-21.3a13.128,13.128,0,1,1,26.255,0v21.3a2.194,2.194,0,0,1-2.188,2.2" transform="translate(-224.334 -350.57)" fill="#f37504"/>
            </g>
          </g>
        </g>
        <path id="パス_69" data-name="パス 69" d="M224,287.875a13.229,13.229,0,1,0,13.229-13.3A13.267,13.267,0,0,0,224,287.875" transform="translate(-155.878 -190.592)" fill="#ffc274"/>
        <path id="パス_70" data-name="パス 70" d="M275.9,287.879a14.456,14.456,0,0,0-8.17-13.3,13.3,13.3,0,0,1,0,26.606,14.456,14.456,0,0,0,8.17-13.3" transform="translate(-186.31 -190.596)" fill="#eaa65e"/>
      </g>
    </g>
  </g>
  <g id="グループ_215" data-name="グループ 215" transform="translate(-8874.138 -14068.688)">
    <text id="水族館" transform="translate(8904.91 14119.457)" fill="#fff" font-size="10" font-family="HiraKakuProN-W3, Hiragino Kaku Gothic ProN"><tspan x="0" y="0">水族館</tspan></text>
    <g id="グループ_212" data-name="グループ 212" transform="translate(-51.578 278.171)">
      <path id="パス_123" data-name="パス 123" d="M16.736,28.029a1.722,1.722,0,0,1-1.4-.717c-.65-.906-1.91-2.716-3.045-4.663C10,18.71,10,17.21,10,16.717a6.717,6.717,0,0,1,13.434,0c0,.492,0,1.991-2.277,5.927-1.126,1.947-2.376,3.757-3.021,4.663a1.722,1.722,0,0,1-1.4.722" transform="translate(8927.869 13818.271)" fill="#fff"/>
      <path id="パス_124" data-name="パス 124" d="M31.029,41.614a1.013,1.013,0,0,1-.821-.422c-.643-.9-1.888-2.685-3.008-4.607C25,32.812,25,31.455,25,31.009a6.009,6.009,0,0,1,12.019,0,4.532,4.532,0,0,1-.254,1.465,21.041,21.041,0,0,1-1.928,4.108c-1.111,1.921-2.347,3.711-2.985,4.607a1.012,1.012,0,0,1-.823.424" transform="translate(8913.578 13803.978)" fill="#eaeaea"/>
    </g>
  </g>
  <g id="グループ_216" data-name="グループ 216" transform="translate(-8874.138 -14069.409)">
    <text id="スタバで課題" transform="translate(8904.91 14152.178)" fill="#fff" font-size="10" font-family="HiraKakuProN-W3, Hiragino Kaku Gothic ProN"><tspan x="0" y="0">スタバで課題</tspan></text>
    <g id="グループ_213" data-name="グループ 213" transform="translate(-51.578 310.892)">
      <path id="パス_123-2" data-name="パス 123" d="M16.736,28.029a1.722,1.722,0,0,1-1.4-.717c-.65-.906-1.91-2.716-3.045-4.663C10,18.71,10,17.21,10,16.717a6.717,6.717,0,0,1,13.434,0c0,.492,0,1.991-2.277,5.927-1.126,1.947-2.376,3.757-3.021,4.663a1.722,1.722,0,0,1-1.4.722" transform="translate(8927.869 13818.271)" fill="#fff"/>
      <path id="パス_124-2" data-name="パス 124" d="M31.029,41.614a1.013,1.013,0,0,1-.821-.422c-.643-.9-1.888-2.685-3.008-4.607C25,32.812,25,31.455,25,31.009a6.009,6.009,0,0,1,12.019,0,4.532,4.532,0,0,1-.254,1.465,21.041,21.041,0,0,1-1.928,4.108c-1.111,1.921-2.347,3.711-2.985,4.607a1.012,1.012,0,0,1-.823.424" transform="translate(8913.578 13803.978)" fill="#eaeaea"/>
    </g>
  </g>
  <g id="グループ_217" data-name="グループ 217" transform="translate(-8874.138 -14069.279)">
    <text id="みんなでBBQ_誰でも_" data-name="みんなでBBQ（誰でも！）" transform="translate(8904.91 14183.033)" fill="#fff" font-size="8" font-family="HiraKakuProN-W3, Hiragino Kaku Gothic ProN"><tspan x="0" y="0">みんなでBBQ（誰でも！）</tspan></text>
    <g id="グループ_214" data-name="グループ 214" transform="translate(-51.578 342.762)">
      <path id="パス_123-3" data-name="パス 123" d="M16.736,28.029a1.722,1.722,0,0,1-1.4-.717c-.65-.906-1.91-2.716-3.045-4.663C10,18.71,10,17.21,10,16.717a6.717,6.717,0,0,1,13.434,0c0,.492,0,1.991-2.277,5.927-1.126,1.947-2.376,3.757-3.021,4.663a1.722,1.722,0,0,1-1.4.722" transform="translate(8927.869 13818.271)" fill="#fff"/>
      <path id="パス_124-3" data-name="パス 124" d="M31.029,41.614a1.013,1.013,0,0,1-.821-.422c-.643-.9-1.888-2.685-3.008-4.607C25,32.812,25,31.455,25,31.009a6.009,6.009,0,0,1,12.019,0,4.532,4.532,0,0,1-.254,1.465,21.041,21.041,0,0,1-1.928,4.108c-1.111,1.921-2.347,3.711-2.985,4.607a1.012,1.012,0,0,1-.823.424" transform="translate(8913.578 13803.978)" fill="#eaeaea"/>
    </g>
  </g>
</svg>
