<svg xmlns="http://www.w3.org/2000/svg" xmlns:xlink="http://www.w3.org/1999/xlink" width="251.672" height="154.363" viewBox="0 0 251.672 154.363">
  <defs>
    <clipPath id="clip-path">
      <rect id="長方形_131" data-name="長方形 131" width="156.708" height="141.363" fill="none"/>
    </clipPath>
    <clipPath id="clip-path-2">
      <rect id="長方形_132" data-name="長方形 132" width="20.756" height="23.469" fill="none"/>
    </clipPath>
    <clipPath id="clip-path-3">
      <rect id="長方形_154" data-name="長方形 154" width="45" height="54.782" fill="none"/>
    </clipPath>
  </defs>
  <g id="グループ_202" data-name="グループ 202" transform="translate(94.964)">
    <g id="グループ_114" data-name="グループ 114" transform="translate(0)" clip-path="url(#clip-path)">
      <path id="パス_26" data-name="パス 26" d="M208.522,141.363H57.558a3.04,3.04,0,0,1-2.872-3.183v-135A3.04,3.04,0,0,1,57.558,0H208.522a3.04,3.04,0,0,1,2.872,3.183v135a3.04,3.04,0,0,1-2.872,3.183" transform="translate(-54.686)" fill="#f37504"/>
    </g>
  </g>
  <g id="グループ_206" data-name="グループ 206" transform="translate(76.846 106.367)" style="isolation: isolate">
    <g id="グループ_118" data-name="グループ 118" transform="translate(0 0)">
      <g id="グループ_117" data-name="グループ 117" clip-path="url(#clip-path-2)">
        <path id="パス_27" data-name="パス 27" d="M18.32,302.622.812,292.514a1.624,1.624,0,0,1,0-2.813L18.32,279.593A1.624,1.624,0,0,1,20.756,281v20.216a1.624,1.624,0,0,1-2.436,1.406" transform="translate(0 -279.373)" fill="#f37504"/>
      </g>
    </g>
  </g>
  <rect id="長方形_181" data-name="長方形 181" width="135" height="2" rx="1" transform="translate(106.846 45.861)" fill="#fff"/>
  <rect id="長方形_182" data-name="長方形 182" width="135" height="2" rx="1" transform="translate(106.846 82.861)" fill="#fff"/>
  <rect id="長方形_180" data-name="長方形 180" width="135" height="2" rx="1" transform="translate(106.846 119.861)" fill="#fff"/>
  <g id="グループ_203" data-name="グループ 203" transform="translate(0 99.581)" style="isolation: isolate">
    <g id="グループ_159" data-name="グループ 159">
      <g id="グループ_158" data-name="グループ 158" clip-path="url(#clip-path-3)">
        <path id="パス_54" data-name="パス 54" d="M41.281,150.478H3.719A3.719,3.719,0,0,1,0,146.759V118.01A22.314,22.314,0,0,1,22.314,95.7h.372A22.314,22.314,0,0,1,45,118.01v28.749a3.719,3.719,0,0,1-3.719,3.719" transform="translate(0 -95.696)" fill="#025aa6"/>
      </g>
    </g>
  </g>
  <path id="パス_111" data-name="パス 111" d="M46.421,19.711A19.711,19.711,0,1,1,26.711,0,19.711,19.711,0,0,1,46.421,19.711" transform="translate(-4.396 63.991)" fill="#ffc274"/>
  <path id="パス_112" data-name="パス 112" d="M14.432,19.715c0-8.889,5.028-16.505,12.173-19.708a19.708,19.708,0,0,0,0,39.416C19.46,36.22,14.432,28.6,14.432,19.715" transform="translate(-4.396 63.986)" fill="#eaa65e"/>
  <path id="パス_113" data-name="パス 113" d="M46.421,19.711a19.711,19.711,0,1,0-38.7,5.268A15.673,15.673,0,0,0,19.279,9.855c0-.385-.013-.766-.042-1.141a12.008,12.008,0,0,0,3.92.656A11.889,11.889,0,0,0,29,7.842,17.448,17.448,0,0,0,45.9,24.222a19.751,19.751,0,0,0,.525-4.511" transform="translate(-4.396 63.991)"/>
  <rect id="長方形_179" data-name="長方形 179" width="45" height="90.372" transform="translate(0 63.991)" fill="none"/>
  <path id="パス_119" data-name="パス 119" d="M10,10H23.434V28.029H10Z" transform="translate(98.715 44.977)" fill="none"/>
  <g id="グループ_218" data-name="グループ 218" transform="translate(-8829.154 -13808.832)">
    <text id="水族館" transform="translate(8959.065 13842.208)" fill="#fff" font-size="13" font-family="HiraKakuProN-W3, Hiragino Kaku Gothic ProN"><tspan x="0" y="0">水族館</tspan></text>
    <g id="グループ_209" data-name="グループ 209" transform="translate(0.065 0.422)">
      <path id="パス_123" data-name="パス 123" d="M16.736,28.029a1.722,1.722,0,0,1-1.4-.717c-.65-.906-1.91-2.716-3.045-4.663C10,18.71,10,17.21,10,16.717a6.717,6.717,0,0,1,13.434,0c0,.492,0,1.991-2.277,5.927-1.126,1.947-2.376,3.757-3.021,4.663a1.722,1.722,0,0,1-1.4.722" transform="translate(8927.869 13818.271)" fill="#fff"/>
      <path id="パス_124" data-name="パス 124" d="M31.029,41.614a1.013,1.013,0,0,1-.821-.422c-.643-.9-1.888-2.685-3.008-4.607C25,32.812,25,31.455,25,31.009a6.009,6.009,0,0,1,12.019,0,4.532,4.532,0,0,1-.254,1.465,21.041,21.041,0,0,1-1.928,4.108c-1.111,1.921-2.347,3.711-2.985,4.607a1.012,1.012,0,0,1-.823.424" transform="translate(8913.578 13803.978)" fill="#eaeaea"/>
    </g>
  </g>
  <g id="グループ_220" data-name="グループ 220" transform="translate(-8829.154 -13808.254)">
    <text id="みんなでBBQ_誰でも_" data-name="みんなでBBQ（誰でも！）" transform="translate(8959.065 13914.63)" fill="#fff" font-size="9" font-family="HiraKakuProN-W3, Hiragino Kaku Gothic ProN"><tspan x="0" y="0">みんなでBBQ（誰でも！）</tspan></text>
    <g id="グループ_211" data-name="グループ 211" transform="translate(0.065 73.844)">
      <path id="パス_123-2" data-name="パス 123" d="M16.736,28.029a1.722,1.722,0,0,1-1.4-.717c-.65-.906-1.91-2.716-3.045-4.663C10,18.71,10,17.21,10,16.717a6.717,6.717,0,0,1,13.434,0c0,.492,0,1.991-2.277,5.927-1.126,1.947-2.376,3.757-3.021,4.663a1.722,1.722,0,0,1-1.4.722" transform="translate(8927.869 13818.271)" fill="#fff"/>
      <path id="パス_124-2" data-name="パス 124" d="M31.029,41.614a1.013,1.013,0,0,1-.821-.422c-.643-.9-1.888-2.685-3.008-4.607C25,32.812,25,31.455,25,31.009a6.009,6.009,0,0,1,12.019,0,4.532,4.532,0,0,1-.254,1.465,21.041,21.041,0,0,1-1.928,4.108c-1.111,1.921-2.347,3.711-2.985,4.607a1.012,1.012,0,0,1-.823.424" transform="translate(8913.578 13803.978)" fill="#eaeaea"/>
    </g>
  </g>
  <g id="グループ_219" data-name="グループ 219" transform="translate(-8829.154 -13807.254)">
    <text id="スタバで課題" transform="translate(8959.133 13877.63)" fill="#fff" font-size="13" font-family="HiraKakuProN-W3, Hiragino Kaku Gothic ProN"><tspan x="0" y="0">スタバで課題</tspan></text>
    <g id="グループ_210" data-name="グループ 210" transform="translate(0.065 35.844)">
      <path id="パス_123-3" data-name="パス 123" d="M16.736,28.029a1.722,1.722,0,0,1-1.4-.717c-.65-.906-1.91-2.716-3.045-4.663C10,18.71,10,17.21,10,16.717a6.717,6.717,0,0,1,13.434,0c0,.492,0,1.991-2.277,5.927-1.126,1.947-2.376,3.757-3.021,4.663a1.722,1.722,0,0,1-1.4.722" transform="translate(8927.869 13818.271)" fill="#fff"/>
      <path id="パス_124-3" data-name="パス 124" d="M31.029,41.614a1.013,1.013,0,0,1-.821-.422c-.643-.9-1.888-2.685-3.008-4.607C25,32.812,25,31.455,25,31.009a6.009,6.009,0,0,1,12.019,0,4.532,4.532,0,0,1-.254,1.465,21.041,21.041,0,0,1-1.928,4.108c-1.111,1.921-2.347,3.711-2.985,4.607a1.012,1.012,0,0,1-.823.424" transform="translate(8913.578 13803.978)" fill="#eaeaea"/>
    </g>
  </g>
</svg>
