<svg xmlns="http://www.w3.org/2000/svg" xmlns:xlink="http://www.w3.org/1999/xlink" width="128.031" height="167.022" viewBox="0 0 128.031 167.022">
  <defs>
    <clipPath id="clip-path">
      <rect id="長方形_171" data-name="長方形 171" width="55.052" height="48.814" transform="translate(0 0)" fill="none" stroke="#fff" stroke-width="1"/>
    </clipPath>
    <filter id="パス_75">
      <feOffset dx="10" dy="5" input="SourceAlpha"/>
      <feGaussianBlur stdDeviation="49.5" result="blur"/>
      <feFlood flood-opacity="0.129" result="color"/>
      <feComposite operator="out" in="SourceGraphic" in2="blur"/>
      <feComposite operator="in" in="color"/>
      <feComposite operator="in" in2="SourceGraphic"/>
    </filter>
  </defs>
  <g id="グループ_200" data-name="グループ 200" transform="matrix(0.996, 0.087, -0.087, 0.996, 73.189, 0)">
    <g id="グループ_188" data-name="グループ 188" clip-path="url(#clip-path)">
      <line id="線_27" data-name="線 27" y2="20.423" transform="translate(5 5)" fill="none" stroke="#fff" stroke-linecap="round" stroke-miterlimit="10" stroke-width="10"/>
      <line id="線_28" data-name="線 28" x1="12.285" y2="16.314" transform="translate(20.787 14.053)" fill="none" stroke="#fff" stroke-linecap="round" stroke-miterlimit="10" stroke-width="10"/>
      <line id="線_29" data-name="線 29" x1="19.627" y2="5.643" transform="translate(30.424 38.171)" fill="none" stroke="#fff" stroke-linecap="round" stroke-miterlimit="10" stroke-width="10"/>
    </g>
  </g>
  <path id="パス_74" data-name="パス 74" d="M56.877,135.464a11.984,11.984,0,0,1-9.715-4.986c-4.523-6.3-13.289-18.9-21.187-32.452C10,70.616,10,60.173,10,56.742a46.742,46.742,0,0,1,93.483,0c0,3.427,0,13.855-15.843,41.249C79.8,111.54,71.1,124.138,66.617,130.442a11.98,11.98,0,0,1-9.74,5.022" transform="translate(-10 24.981)" fill="#fff"/>
  <g data-type="innerShadowGroup">
    <path id="パス_75-2" data-name="パス 75" d="M66.954,140.618a7.049,7.049,0,0,1-5.714-2.934C56.768,131.453,48.1,119,40.307,105.625,25,79.363,25,69.921,25,66.819a41.819,41.819,0,1,1,83.637,0c0,1.551,0,4.439-1.764,10.194-2.334,7.612-6.848,17.231-13.417,28.59-7.733,13.371-16.334,25.827-20.773,32.061a7.045,7.045,0,0,1-5.729,2.954" transform="translate(-20.077 14.904)" fill="#fff"/>
    <g transform="matrix(1, 0, 0, 1, 0, 0)" filter="url(#パス_75)">
      <path id="パス_75-3" data-name="パス 75" d="M66.954,140.618a7.049,7.049,0,0,1-5.714-2.934C56.768,131.453,48.1,119,40.307,105.625,25,79.363,25,69.921,25,66.819a41.819,41.819,0,1,1,83.637,0c0,1.551,0,4.439-1.764,10.194-2.334,7.612-6.848,17.231-13.417,28.59-7.733,13.371-16.334,25.827-20.773,32.061a7.045,7.045,0,0,1-5.729,2.954" transform="translate(-20.08 14.9)" fill="#fff"/>
    </g>
  </g>
  <path id="パス_76" data-name="パス 76" d="M10,10h93.483V135.464H10Z" transform="translate(-10 24.981)" fill="none"/>
  <path id="パス_77" data-name="パス 77" d="M113.223,75.784c0,17.657-27.2,57.149-35.142,68.3a2.653,2.653,0,0,1-4.317.008c-8-11.144-35.418-50.65-35.418-68.312a37.438,37.438,0,1,1,74.877,0" transform="translate(-29.042 5.938)" fill="#f49f3f"/>
  <path id="パス_78" data-name="パス 78" d="M106.667,145.4l-9.582-7.905a5.595,5.595,0,1,1,7.12-8.632l2.311,1.906a5.594,5.594,0,0,0,7.208-.074l12.128-10.433a5.594,5.594,0,1,1,7.3,8.482l-19.274,16.584a5.594,5.594,0,0,1-7.208.075" transform="translate(-67.136 -48.181)" fill="#fff"/>
  <path id="Icon_awesome-hand-point-up" data-name="Icon awesome-hand-point-up" d="M14.7,0a4.886,4.886,0,0,1,4.749,4.854V15.673a5.33,5.33,0,0,1,7.687.683,4.963,4.963,0,0,1,6.752,1.782c5.325-.972,7.722,2.378,7.722,7.866,0,.3-.022,1.438-.021,1.734.018,6.715-3.366,8.332-4.152,13.407a2.6,2.6,0,0,1-2.568,2.2H16.281a5.2,5.2,0,0,1-4.751-3.084c-1.408-3.13-5.313-10.338-8.378-11.652A4.618,4.618,0,0,1,0,24.271a5.2,5.2,0,0,1,7.25-4.78,14.727,14.727,0,0,1,2.7,1.534V4.854A4.965,4.965,0,0,1,14.7,0Zm.038,45.075h20.8a2.6,2.6,0,0,1,2.6,2.6v5.2a2.6,2.6,0,0,1-2.6,2.6h-20.8a2.6,2.6,0,0,1-2.6-2.6v-5.2A2.6,2.6,0,0,1,14.736,45.075Zm18.2,3.034a2.167,2.167,0,1,0,2.167,2.167A2.167,2.167,0,0,0,32.939,48.108Z" transform="matrix(0.819, -0.574, 0.574, 0.819, 47.743, 121.579)" fill="#f37504"/>
</svg>
