<svg xmlns="http://www.w3.org/2000/svg" width="77" height="25"><g transform="translate(-287 -185)"><rect width="77" height="25" rx="2" transform="translate(287 185)" fill="#f59f30"/><g fill="#fff"><text transform="translate(297 201)" font-size="10" font-family="HiraKakuProN-W3, Hiragino Kaku Gothic ProN"><tspan x="0" y="0">行きたい</tspan></text><path data-name="Icon ionic-ios-send" d="m353.747 192.025-10.607 4.623a.243.243 0 0 0 .009.442l2.869 1.621a.463.463 0 0 0 .529-.052l5.653-4.878c.038-.032.127-.092.162-.058s-.02.124-.052.162l-4.891 5.512a.461.461 0 0 0-.046.552l1.875 3.008a.244.244 0 0 0 .439-.006l4.386-10.606a.243.243 0 0 0-.326-.32z"/></g></g></svg>