<?xml version="1.0" encoding="utf-8"?>
<!-- Generator: Adobe Illustrator 26.0.1, SVG Export Plug-In . SVG Version: 6.00 Build 0)  -->
<svg version="1.1" id="レイヤー_1" xmlns="http://www.w3.org/2000/svg" xmlns:xlink="http://www.w3.org/1999/xlink" x="0px"
	 y="0px" viewBox="0 0 500 500" style="enable-background:new 0 0 500 500;" xml:space="preserve">
<style type="text/css">
	.st0{fill:#EEB842;}
	.st1{fill:#FFFFFF;}
	.st2{fill:#F49F3F;}
	.st3{fill:#F07639;}
</style>
<g>
	<path class="st0" d="M185.22,491.51c-18.53,0-36.17-8.9-47.18-23.81c-3.52-4.76-35.38-48.1-67.11-99.79
		C22.67,289.32,0.19,233.77,0.19,193.09C0.19,91.3,83,8.49,184.79,8.49c46.03,0,90.15,17.1,124.23,48.15
		c27.23,24.81,46.22,56.81,54.95,91.97c38.93,6.32,74.29,26.62,99.61,57.8c27.27,33.61,39.82,75.82,35.35,118.86
		c-4.48,43.04-25.45,81.77-59.05,109.04c-16.97,13.78-40.45,24.27-73.87,33.02c-21.85,5.72-48.29,10.7-78.59,14.82
		c-49.87,6.77-94.33,9.05-99.23,9.29l-1.45,0.07H185.22z"/>
	<g>
		<path class="st1" d="M185.22,460.21c-8.68,0-16.85-4.12-22-11.1h0c-3.46-4.69-34.68-47.18-65.61-97.57
			c-44.49-72.45-66.11-124.28-66.11-158.45c0-84.53,68.77-153.3,153.3-153.3c79.37,0,144.85,60.63,152.55,138.01
			c0.13,0,0.26,0,0.39,0c39.6,0,76.62,17.62,101.55,48.34c22,27.12,32.13,61.17,28.52,95.9c-3.61,34.73-20.53,65.97-47.65,87.97
			c-13.21,10.72-33.51,19.57-62.07,27.04c-20.64,5.4-45.83,10.14-74.88,14.08c-48.57,6.59-91.78,8.81-96.54,9.05l-0.66,0.03H185.22z
			"/>
	</g>
	<g>
		<path class="st2" d="M310.73,193.09c0,59.4-91.5,192.26-118.22,229.78c-3.55,4.99-10.95,5-14.52,0.03
			c-26.9-37.49-119.15-170.39-119.15-229.81c0-69.56,56.39-125.95,125.95-125.95S310.73,123.54,310.73,193.09z"/>
	</g>
	<g>
		<path class="st1" d="M160.53,245.22l-32.23-26.59c-8.02-6.61-9.15-18.48-2.54-26.49l0,0c6.61-8.02,18.48-9.15,26.49-2.54
			l7.77,6.41c7.07,5.83,17.31,5.72,24.25-0.25l40.8-35.1c7.88-6.78,19.76-5.89,26.54,1.99l0,0c6.78,7.88,5.89,19.76-1.99,26.54
			l-64.84,55.78C177.84,250.94,167.6,251.05,160.53,245.22z"/>
	</g>
	<path class="st3" d="M419.96,246.28c-19.43-23.94-47.37-36.92-75.93-38.13c-2.69-0.11-5.05,1.82-5.49,4.48
		c-5.57,33.92-27.06,81.17-65.27,143.63c-16.11,26.33-32.09,50.23-44.06,67.58c-2.6,3.77,0.38,8.86,4.94,8.43
		c54.68-5.09,141.22-16.69,170.69-40.61C449.17,355.69,455.93,290.6,419.96,246.28z"/>
</g>
</svg>
