<svg xmlns="http://www.w3.org/2000/svg" viewBox="0 0 500 500" style="enable-background:new 0 0 500 500" xml:space="preserve"><path fill="#00ACEE" d="M500 94.77a207.558 207.558 0 0 1-58.9 16.21c21.44-12.82 37.48-33 45.13-56.78-20.12 12-42.17 20.43-65.16 24.94-38.69-41.36-103.57-43.52-144.93-4.84a102.533 102.533 0 0 0-32.49 74.96c-.04 7.88.85 15.74 2.64 23.42A290.698 290.698 0 0 1 34.86 65.44C7.58 112.4 21.55 172.49 66.75 202.59c-16.35-.4-32.35-4.8-46.61-12.82v1.27c-.02 48.86 34.4 90.96 82.29 100.64-8.8 2.38-17.88 3.59-27.01 3.59-6.47.01-12.93-.62-19.28-1.9 13.49 41.68 51.93 70.22 95.73 71.07A205.605 205.605 0 0 1 24.44 408.4c-8.18-.01-16.34-.5-24.46-1.47a286.838 286.838 0 0 0 157.1 46.41c160.19 1.11 290.95-127.86 292.06-288.05.01-1.34.01-2.69 0-4.03 0-4.44 0-8.9-.32-13.24 20.1-14.56 37.42-32.6 51.18-53.25z"/></svg>