<svg version="1.1" xmlns="http://www.w3.org/2000/svg" xmlns:xlink="http://www.w3.org/1999/xlink" x="0px" y="0px" viewBox="0 0 500 500" style="enable-background:new 0 0 500 500;" xml:space="preserve">
<path fill="#00ACEE" d="M500,94.77c-18.73,8.28-38.57,13.74-58.9,16.21c21.44-12.82,37.48-33,45.13-56.78c-20.12,12-42.17,20.43-65.16,24.94c-38.69-41.36-103.57-43.52-144.93-4.84c-20.75,19.41-32.51,46.55-32.49,74.96c-0.04,7.88,0.85,15.74,2.64,23.42C163.78,168.6,86.9,129.61,34.86,65.44C7.58,112.4,21.55,172.49,66.75,202.59c-16.35-0.4-32.35-4.8-46.61-12.82v1.27c-0.02,48.86,34.4,90.96,82.29,100.64c-8.8,2.38-17.88,3.59-27.01,3.59c-6.47,0.01-12.93-0.62-19.28-1.9c13.49,41.68,51.93,70.22,95.73,71.07c-36.33,28.56-81.22,44.04-127.43,43.96c-8.18-0.01-16.34-0.5-24.46-1.47c46.74,30.41,101.33,46.54,157.1,46.41c160.19,1.11,290.95-127.86,292.06-288.05c0.01-1.34,0.01-2.69,0-4.03c0-4.44,0-8.9-0.32-13.24C468.92,133.46,486.24,115.42,500,94.77z"/>
</svg>
