<svg xmlns="http://www.w3.org/2000/svg" xmlns:xlink="http://www.w3.org/1999/xlink" width="29" height="36" viewBox="0 0 314.832 412.274">
  <defs>
    <filter id="path1" x="0" y="0" width="314.832" height="412.274" filterUnits="userSpaceOnUse">
      <feOffset dx="5" dy="5" input="SourceAlpha"/>
      <feGaussianBlur stdDeviation="5" result="blur"/>
      <feFlood flood-opacity="0.102"/>
      <feComposite operator="in" in2="blur"/>
      <feComposite in="SourceGraphic"/>
    </filter>
    <filter id="path2">
      <feOffset dx="10" dy="5" input="SourceAlpha"/>
      <feGaussianBlur stdDeviation="49.5" result="blur-2"/>
      <feFlood flood-opacity="0.129" result="color"/>
      <feComposite operator="out" in="SourceGraphic" in2="blur-2"/>
      <feComposite operator="in" in="color"/>
      <feComposite operator="in" in2="SourceGraphic"/>
    </filter>
  </defs>
  <g transform="matrix(1, 0, 0, 1, 0, 0)" filter="url(#path1)">
    <path d="M142.828,382.274a36.515,36.515,0,0,1-29.6-15.192c-13.78-19.2-40.489-57.587-64.553-98.876C0,184.688,0,152.871,0,142.416,0,63.887,63.888,0,142.416,0S284.832,63.887,284.832,142.416c0,10.441,0,42.214-48.271,125.679-23.876,41.285-50.382,79.67-64.057,98.877a36.5,36.5,0,0,1-29.676,15.3" transform="translate(10 10)" fill="#fff"/>
  </g>
  <g data-type="innerShadowGroup">
    <path d="M142.828,367.274a21.478,21.478,0,0,1-17.411-8.938c-13.623-18.986-40.025-56.923-63.78-97.683C15,180.636,15,151.869,15,142.416a127.416,127.416,0,0,1,254.832,0c0,4.727,0,13.526-5.375,31.059-7.11,23.192-20.864,52.5-40.881,87.11-23.56,40.74-49.767,78.691-63.292,97.687a21.465,21.465,0,0,1-17.456,9" transform="translate(10 10)" fill="#fff"/>
    <g transform="matrix(1, 0, 0, 1, 0, 0)" filter="url(#path2)">
      <path d="M142.828,367.274a21.478,21.478,0,0,1-17.411-8.938c-13.623-18.986-40.025-56.923-63.78-97.683C15,180.636,15,151.869,15,142.416a127.416,127.416,0,0,1,254.832,0c0,4.727,0,13.526-5.375,31.059-7.11,23.192-20.864,52.5-40.881,87.11-23.56,40.74-49.767,78.691-63.292,97.687a21.465,21.465,0,0,1-17.456,9" transform="translate(10 10)" fill="#fff"/>
    </g>
  </g>
  <rect width="284.832" height="382.274" transform="translate(10 10)" fill="none"/>
</svg>